<svg xmlns="http://www.w3.org/2000/svg" xmlns:xlink="http://www.w3.org/1999/xlink" width="117" zoomAndPan="magnify" viewBox="0 0 87.75 13.5" height="18" preserveAspectRatio="xMidYMid meet" version="1.0"><defs><g/><clipPath id="3ea061a5ad"><path d="M 1.445312 1.675781 L 63.300781 1.675781 L 63.300781 10.953125 L 1.445312 10.953125 Z M 1.445312 1.675781 " clip-rule="nonzero"/></clipPath><clipPath id="521133cd81"><path d="M 6.085938 1.675781 L 58.648438 1.675781 C 61.210938 1.675781 63.289062 3.753906 63.289062 6.316406 C 63.289062 8.875 61.210938 10.953125 58.648438 10.953125 L 6.085938 10.953125 C 3.523438 10.953125 1.445312 8.875 1.445312 6.316406 C 1.445312 3.753906 3.523438 1.675781 6.085938 1.675781 Z M 6.085938 1.675781 " clip-rule="nonzero"/></clipPath><clipPath id="e8352f13c7"><path d="M 1.445312 1.675781 L 38.550781 1.675781 L 38.550781 10.953125 L 1.445312 10.953125 Z M 1.445312 1.675781 " clip-rule="nonzero"/></clipPath><clipPath id="c5a5b84604"><path d="M 6.085938 1.675781 L 33.914062 1.675781 C 36.472656 1.675781 38.550781 3.753906 38.550781 6.316406 C 38.550781 8.875 36.472656 10.953125 33.914062 10.953125 L 6.085938 10.953125 C 3.523438 10.953125 1.445312 8.875 1.445312 6.316406 C 1.445312 3.753906 3.523438 1.675781 6.085938 1.675781 Z M 6.085938 1.675781 " clip-rule="nonzero"/></clipPath></defs><g fill="#000000" fill-opacity="1"><g transform="translate(66.379288, 9.535657)"><g><path d="M 3.046875 0.109375 C 2.679688 0.109375 2.34375 0.0390625 2.03125 -0.09375 C 1.71875 -0.238281 1.441406 -0.425781 1.203125 -0.65625 C 0.972656 -0.894531 0.789062 -1.171875 0.65625 -1.484375 C 0.519531 -1.804688 0.453125 -2.144531 0.453125 -2.5 C 0.453125 -2.75 0.488281 -2.984375 0.5625 -3.203125 C 0.632812 -3.429688 0.726562 -3.660156 0.84375 -3.890625 C 0.875 -3.941406 0.925781 -4.035156 1 -4.171875 C 1.070312 -4.304688 1.15625 -4.460938 1.25 -4.640625 C 1.34375 -4.816406 1.445312 -5.007812 1.5625 -5.21875 C 1.675781 -5.4375 1.789062 -5.648438 1.90625 -5.859375 C 2.1875 -6.359375 2.488281 -6.910156 2.8125 -7.515625 L 3.984375 -7.515625 L 2.59375 -4.984375 C 2.957031 -5.078125 3.3125 -5.09375 3.65625 -5.03125 C 4 -4.96875 4.296875 -4.84375 4.546875 -4.65625 C 4.890625 -4.414062 5.15625 -4.101562 5.34375 -3.71875 C 5.539062 -3.34375 5.640625 -2.9375 5.640625 -2.5 C 5.640625 -2.144531 5.570312 -1.804688 5.4375 -1.484375 C 5.300781 -1.171875 5.113281 -0.894531 4.875 -0.65625 C 4.644531 -0.425781 4.375 -0.238281 4.0625 -0.09375 C 3.75 0.0390625 3.410156 0.109375 3.046875 0.109375 Z M 1.875 -3.5625 C 1.78125 -3.375 1.691406 -3.179688 1.609375 -2.984375 C 1.535156 -2.785156 1.5 -2.625 1.5 -2.5 C 1.5 -2.289062 1.535156 -2.085938 1.609375 -1.890625 C 1.691406 -1.703125 1.804688 -1.535156 1.953125 -1.390625 C 2.097656 -1.253906 2.265625 -1.144531 2.453125 -1.0625 C 2.640625 -0.976562 2.835938 -0.9375 3.046875 -0.9375 C 3.253906 -0.9375 3.453125 -0.976562 3.640625 -1.0625 C 3.835938 -1.144531 4.003906 -1.253906 4.140625 -1.390625 C 4.273438 -1.535156 4.382812 -1.703125 4.46875 -1.890625 C 4.550781 -2.085938 4.59375 -2.289062 4.59375 -2.5 C 4.59375 -2.769531 4.535156 -3.019531 4.421875 -3.25 C 4.304688 -3.476562 4.148438 -3.664062 3.953125 -3.8125 C 3.816406 -3.90625 3.660156 -3.976562 3.484375 -4.03125 C 3.316406 -4.082031 3.140625 -4.101562 2.953125 -4.09375 C 2.765625 -4.082031 2.578125 -4.039062 2.390625 -3.96875 C 2.210938 -3.90625 2.050781 -3.789062 1.90625 -3.625 Z M 1.875 -3.5625 "/></g></g></g><g fill="#000000" fill-opacity="1"><g transform="translate(72.414164, 9.535657)"><g><path d="M 3.03125 0.109375 C 2.65625 0.109375 2.304688 0.0234375 1.984375 -0.140625 C 1.660156 -0.316406 1.378906 -0.566406 1.140625 -0.890625 C 0.898438 -1.203125 0.710938 -1.554688 0.578125 -1.953125 C 0.441406 -2.359375 0.375 -2.789062 0.375 -3.25 L 0.375 -4.1875 C 0.375 -4.6875 0.4375 -5.144531 0.5625 -5.5625 C 0.695312 -5.988281 0.878906 -6.351562 1.109375 -6.65625 C 1.328125 -6.96875 1.597656 -7.207031 1.921875 -7.375 C 2.253906 -7.539062 2.625 -7.625 3.03125 -7.625 C 3.414062 -7.625 3.769531 -7.539062 4.09375 -7.375 C 4.425781 -7.207031 4.707031 -6.96875 4.9375 -6.65625 C 5.15625 -6.351562 5.332031 -5.988281 5.46875 -5.5625 C 5.601562 -5.144531 5.671875 -4.6875 5.671875 -4.1875 L 5.671875 -3.25 C 5.671875 -2.769531 5.601562 -2.328125 5.46875 -1.921875 C 5.332031 -1.515625 5.144531 -1.15625 4.90625 -0.84375 C 4.664062 -0.539062 4.382812 -0.304688 4.0625 -0.140625 C 3.75 0.0234375 3.40625 0.109375 3.03125 0.109375 Z M 1.46875 -3.25 C 1.46875 -2.90625 1.507812 -2.582031 1.59375 -2.28125 C 1.675781 -1.988281 1.800781 -1.738281 1.96875 -1.53125 C 2.101562 -1.34375 2.257812 -1.195312 2.4375 -1.09375 C 2.625 -0.988281 2.820312 -0.9375 3.03125 -0.9375 C 3.257812 -0.9375 3.46875 -0.992188 3.65625 -1.109375 C 3.851562 -1.222656 4.019531 -1.378906 4.15625 -1.578125 C 4.289062 -1.785156 4.394531 -2.03125 4.46875 -2.3125 C 4.550781 -2.59375 4.59375 -2.90625 4.59375 -3.25 L 4.59375 -4.1875 C 4.59375 -4.988281 4.429688 -5.601562 4.109375 -6.03125 C 3.828125 -6.382812 3.46875 -6.5625 3.03125 -6.5625 C 2.570312 -6.5625 2.207031 -6.382812 1.9375 -6.03125 C 1.625 -5.613281 1.46875 -5 1.46875 -4.1875 Z M 1.46875 -3.25 "/></g></g></g><g fill="#000000" fill-opacity="1"><g transform="translate(78.565706, 9.535657)"><g><path d="M 3.75 -1.484375 C 3.75 -1.703125 3.789062 -1.910156 3.875 -2.109375 C 3.96875 -2.304688 4.085938 -2.476562 4.234375 -2.625 C 4.378906 -2.769531 4.546875 -2.882812 4.734375 -2.96875 C 4.929688 -3.050781 5.144531 -3.09375 5.375 -3.09375 C 5.59375 -3.09375 5.800781 -3.050781 6 -2.96875 C 6.195312 -2.882812 6.367188 -2.769531 6.515625 -2.625 C 6.660156 -2.476562 6.773438 -2.304688 6.859375 -2.109375 C 6.941406 -1.910156 6.984375 -1.703125 6.984375 -1.484375 C 6.984375 -1.253906 6.941406 -1.039062 6.859375 -0.84375 C 6.773438 -0.65625 6.660156 -0.488281 6.515625 -0.34375 C 6.367188 -0.195312 6.195312 -0.0820312 6 0 C 5.800781 0.0820312 5.59375 0.125 5.375 0.125 C 5.144531 0.125 4.929688 0.0820312 4.734375 0 C 4.546875 -0.0820312 4.378906 -0.195312 4.234375 -0.34375 C 4.085938 -0.488281 3.96875 -0.65625 3.875 -0.84375 C 3.789062 -1.039062 3.75 -1.253906 3.75 -1.484375 Z M 5.375 -2.390625 C 5.238281 -2.390625 5.113281 -2.367188 5 -2.328125 C 4.894531 -2.285156 4.800781 -2.21875 4.71875 -2.125 C 4.644531 -2.039062 4.582031 -1.941406 4.53125 -1.828125 C 4.476562 -1.722656 4.453125 -1.609375 4.453125 -1.484375 C 4.453125 -1.359375 4.476562 -1.238281 4.53125 -1.125 C 4.582031 -1.007812 4.644531 -0.910156 4.71875 -0.828125 C 4.800781 -0.742188 4.894531 -0.675781 5 -0.625 C 5.113281 -0.582031 5.238281 -0.5625 5.375 -0.5625 C 5.625 -0.5625 5.835938 -0.648438 6.015625 -0.828125 C 6.203125 -1.015625 6.296875 -1.234375 6.296875 -1.484375 C 6.296875 -1.742188 6.203125 -1.957031 6.015625 -2.125 C 5.835938 -2.300781 5.625 -2.390625 5.375 -2.390625 Z M 1.921875 -4.34375 C 1.691406 -4.34375 1.476562 -4.382812 1.28125 -4.46875 C 1.09375 -4.5625 0.925781 -4.679688 0.78125 -4.828125 C 0.632812 -4.972656 0.519531 -5.140625 0.4375 -5.328125 C 0.351562 -5.523438 0.3125 -5.738281 0.3125 -5.96875 C 0.3125 -6.1875 0.351562 -6.394531 0.4375 -6.59375 C 0.519531 -6.789062 0.632812 -6.960938 0.78125 -7.109375 C 0.925781 -7.253906 1.09375 -7.367188 1.28125 -7.453125 C 1.476562 -7.535156 1.691406 -7.578125 1.921875 -7.578125 C 2.140625 -7.578125 2.347656 -7.535156 2.546875 -7.453125 C 2.742188 -7.367188 2.914062 -7.253906 3.0625 -7.109375 C 3.207031 -6.960938 3.320312 -6.789062 3.40625 -6.59375 C 3.5 -6.394531 3.546875 -6.1875 3.546875 -5.96875 C 3.546875 -5.738281 3.5 -5.523438 3.40625 -5.328125 C 3.320312 -5.140625 3.207031 -4.972656 3.0625 -4.828125 C 2.914062 -4.679688 2.742188 -4.5625 2.546875 -4.46875 C 2.347656 -4.382812 2.140625 -4.34375 1.921875 -4.34375 Z M 1.921875 -6.890625 C 1.796875 -6.890625 1.675781 -6.863281 1.5625 -6.8125 C 1.457031 -6.757812 1.363281 -6.691406 1.28125 -6.609375 C 1.195312 -6.535156 1.128906 -6.441406 1.078125 -6.328125 C 1.035156 -6.210938 1.015625 -6.09375 1.015625 -5.96875 C 1.015625 -5.832031 1.035156 -5.707031 1.078125 -5.59375 C 1.128906 -5.488281 1.195312 -5.394531 1.28125 -5.3125 C 1.363281 -5.238281 1.457031 -5.175781 1.5625 -5.125 C 1.675781 -5.070312 1.796875 -5.046875 1.921875 -5.046875 C 2.046875 -5.046875 2.164062 -5.070312 2.28125 -5.125 C 2.394531 -5.175781 2.488281 -5.238281 2.5625 -5.3125 C 2.644531 -5.394531 2.710938 -5.488281 2.765625 -5.59375 C 2.816406 -5.707031 2.84375 -5.832031 2.84375 -5.96875 C 2.84375 -6.21875 2.75 -6.429688 2.5625 -6.609375 C 2.382812 -6.796875 2.171875 -6.890625 1.921875 -6.890625 Z M 5.671875 -7.8125 L 6.265625 -7.453125 L 1.703125 0.265625 L 1.09375 -0.09375 Z M 5.671875 -7.8125 "/></g></g></g><g clip-path="url(#3ea061a5ad)"><g clip-path="url(#521133cd81)"><path fill="#b8dbba" d="M 1.445312 1.675781 L 63.300781 1.675781 L 63.300781 10.953125 L 1.445312 10.953125 Z M 1.445312 1.675781 " fill-opacity="1" fill-rule="nonzero"/></g></g><g clip-path="url(#e8352f13c7)"><g clip-path="url(#c5a5b84604)"><path fill="#00543d" d="M 1.445312 1.675781 L 63.300781 1.675781 L 63.300781 10.953125 L 1.445312 10.953125 Z M 1.445312 1.675781 " fill-opacity="1" fill-rule="nonzero"/></g></g></svg>