<svg xmlns="http://www.w3.org/2000/svg" xmlns:xlink="http://www.w3.org/1999/xlink" width="117" zoomAndPan="magnify" viewBox="0 0 87.75 13.5" height="18" preserveAspectRatio="xMidYMid meet" version="1.0"><defs><g/><clipPath id="bcae877afd"><path d="M 1.445312 1.726562 L 63.300781 1.726562 L 63.300781 11.003906 L 1.445312 11.003906 Z M 1.445312 1.726562 " clip-rule="nonzero"/></clipPath><clipPath id="fed96bfe0d"><path d="M 6.085938 1.726562 L 58.648438 1.726562 C 61.210938 1.726562 63.289062 3.804688 63.289062 6.363281 C 63.289062 8.925781 61.210938 11.003906 58.648438 11.003906 L 6.085938 11.003906 C 3.523438 11.003906 1.445312 8.925781 1.445312 6.363281 C 1.445312 3.804688 3.523438 1.726562 6.085938 1.726562 Z M 6.085938 1.726562 " clip-rule="nonzero"/></clipPath><clipPath id="209354e1ff"><path d="M 1.445312 1.726562 L 57.101562 1.726562 L 57.101562 11.003906 L 1.445312 11.003906 Z M 1.445312 1.726562 " clip-rule="nonzero"/></clipPath><clipPath id="7433b06ddf"><path d="M 6.085938 1.726562 L 52.464844 1.726562 C 55.027344 1.726562 57.101562 3.804688 57.101562 6.363281 C 57.101562 8.925781 55.027344 11.003906 52.464844 11.003906 L 6.085938 11.003906 C 3.523438 11.003906 1.445312 8.925781 1.445312 6.363281 C 1.445312 3.804688 3.523438 1.726562 6.085938 1.726562 Z M 6.085938 1.726562 " clip-rule="nonzero"/></clipPath></defs><g fill="#000000" fill-opacity="1"><g transform="translate(66.379288, 9.535661)"><g><path d="M 1.4375 -2.890625 C 1.09375 -3.140625 0.820312 -3.453125 0.625 -3.828125 C 0.4375 -4.210938 0.34375 -4.617188 0.34375 -5.046875 C 0.34375 -5.410156 0.410156 -5.75 0.546875 -6.0625 C 0.679688 -6.375 0.863281 -6.644531 1.09375 -6.875 C 1.332031 -7.101562 1.609375 -7.285156 1.921875 -7.421875 C 2.234375 -7.554688 2.570312 -7.625 2.9375 -7.625 C 3.289062 -7.625 3.625 -7.554688 3.9375 -7.421875 C 4.25 -7.285156 4.519531 -7.101562 4.75 -6.875 C 4.988281 -6.644531 5.175781 -6.375 5.3125 -6.0625 C 5.457031 -5.75 5.53125 -5.410156 5.53125 -5.046875 C 5.53125 -4.796875 5.488281 -4.554688 5.40625 -4.328125 C 5.332031 -4.109375 5.238281 -3.882812 5.125 -3.65625 C 5.09375 -3.601562 5.039062 -3.507812 4.96875 -3.375 C 4.90625 -3.238281 4.820312 -3.078125 4.71875 -2.890625 C 4.625 -2.710938 4.515625 -2.515625 4.390625 -2.296875 C 4.273438 -2.085938 4.160156 -1.878906 4.046875 -1.671875 C 3.765625 -1.160156 3.457031 -0.601562 3.125 0 L 1.96875 0 L 3.390625 -2.578125 C 3.023438 -2.484375 2.671875 -2.46875 2.328125 -2.53125 C 1.984375 -2.59375 1.6875 -2.710938 1.4375 -2.890625 Z M 2.9375 -6.59375 C 2.726562 -6.59375 2.523438 -6.550781 2.328125 -6.46875 C 2.140625 -6.394531 1.972656 -6.285156 1.828125 -6.140625 C 1.691406 -6.003906 1.582031 -5.84375 1.5 -5.65625 C 1.414062 -5.46875 1.375 -5.265625 1.375 -5.046875 C 1.375 -4.773438 1.429688 -4.523438 1.546875 -4.296875 C 1.671875 -4.066406 1.832031 -3.882812 2.03125 -3.75 C 2.164062 -3.65625 2.316406 -3.582031 2.484375 -3.53125 C 2.660156 -3.476562 2.835938 -3.453125 3.015625 -3.453125 C 3.203125 -3.460938 3.382812 -3.503906 3.5625 -3.578125 C 3.75 -3.648438 3.921875 -3.765625 4.078125 -3.921875 L 4.109375 -3.984375 C 4.203125 -4.171875 4.285156 -4.363281 4.359375 -4.5625 C 4.441406 -4.757812 4.484375 -4.921875 4.484375 -5.046875 C 4.484375 -5.265625 4.441406 -5.46875 4.359375 -5.65625 C 4.285156 -5.84375 4.175781 -6.003906 4.03125 -6.140625 C 3.882812 -6.285156 3.71875 -6.394531 3.53125 -6.46875 C 3.34375 -6.550781 3.144531 -6.59375 2.9375 -6.59375 Z M 2.9375 -6.59375 "/></g></g></g><g fill="#000000" fill-opacity="1"><g transform="translate(72.276285, 9.535661)"><g><path d="M 3.03125 0.109375 C 2.65625 0.109375 2.304688 0.0234375 1.984375 -0.140625 C 1.660156 -0.316406 1.378906 -0.566406 1.140625 -0.890625 C 0.898438 -1.203125 0.710938 -1.554688 0.578125 -1.953125 C 0.441406 -2.359375 0.375 -2.789062 0.375 -3.25 L 0.375 -4.1875 C 0.375 -4.6875 0.4375 -5.144531 0.5625 -5.5625 C 0.695312 -5.988281 0.878906 -6.351562 1.109375 -6.65625 C 1.328125 -6.96875 1.597656 -7.207031 1.921875 -7.375 C 2.253906 -7.539062 2.625 -7.625 3.03125 -7.625 C 3.414062 -7.625 3.769531 -7.539062 4.09375 -7.375 C 4.425781 -7.207031 4.707031 -6.96875 4.9375 -6.65625 C 5.15625 -6.351562 5.332031 -5.988281 5.46875 -5.5625 C 5.601562 -5.144531 5.671875 -4.6875 5.671875 -4.1875 L 5.671875 -3.25 C 5.671875 -2.769531 5.601562 -2.328125 5.46875 -1.921875 C 5.332031 -1.515625 5.144531 -1.15625 4.90625 -0.84375 C 4.664062 -0.539062 4.382812 -0.304688 4.0625 -0.140625 C 3.75 0.0234375 3.40625 0.109375 3.03125 0.109375 Z M 1.46875 -3.25 C 1.46875 -2.90625 1.507812 -2.582031 1.59375 -2.28125 C 1.675781 -1.988281 1.800781 -1.738281 1.96875 -1.53125 C 2.101562 -1.34375 2.257812 -1.195312 2.4375 -1.09375 C 2.625 -0.988281 2.820312 -0.9375 3.03125 -0.9375 C 3.257812 -0.9375 3.46875 -0.992188 3.65625 -1.109375 C 3.851562 -1.222656 4.019531 -1.378906 4.15625 -1.578125 C 4.289062 -1.785156 4.394531 -2.03125 4.46875 -2.3125 C 4.550781 -2.59375 4.59375 -2.90625 4.59375 -3.25 L 4.59375 -4.1875 C 4.59375 -4.988281 4.429688 -5.601562 4.109375 -6.03125 C 3.828125 -6.382812 3.46875 -6.5625 3.03125 -6.5625 C 2.570312 -6.5625 2.207031 -6.382812 1.9375 -6.03125 C 1.625 -5.613281 1.46875 -5 1.46875 -4.1875 Z M 1.46875 -3.25 "/></g></g></g><g fill="#000000" fill-opacity="1"><g transform="translate(78.427828, 9.535661)"><g><path d="M 3.75 -1.484375 C 3.75 -1.703125 3.789062 -1.910156 3.875 -2.109375 C 3.96875 -2.304688 4.085938 -2.476562 4.234375 -2.625 C 4.378906 -2.769531 4.546875 -2.882812 4.734375 -2.96875 C 4.929688 -3.050781 5.144531 -3.09375 5.375 -3.09375 C 5.59375 -3.09375 5.800781 -3.050781 6 -2.96875 C 6.195312 -2.882812 6.367188 -2.769531 6.515625 -2.625 C 6.660156 -2.476562 6.773438 -2.304688 6.859375 -2.109375 C 6.941406 -1.910156 6.984375 -1.703125 6.984375 -1.484375 C 6.984375 -1.253906 6.941406 -1.039062 6.859375 -0.84375 C 6.773438 -0.65625 6.660156 -0.488281 6.515625 -0.34375 C 6.367188 -0.195312 6.195312 -0.0820312 6 0 C 5.800781 0.0820312 5.59375 0.125 5.375 0.125 C 5.144531 0.125 4.929688 0.0820312 4.734375 0 C 4.546875 -0.0820312 4.378906 -0.195312 4.234375 -0.34375 C 4.085938 -0.488281 3.96875 -0.65625 3.875 -0.84375 C 3.789062 -1.039062 3.75 -1.253906 3.75 -1.484375 Z M 5.375 -2.390625 C 5.238281 -2.390625 5.113281 -2.367188 5 -2.328125 C 4.894531 -2.285156 4.800781 -2.21875 4.71875 -2.125 C 4.644531 -2.039062 4.582031 -1.941406 4.53125 -1.828125 C 4.476562 -1.722656 4.453125 -1.609375 4.453125 -1.484375 C 4.453125 -1.359375 4.476562 -1.238281 4.53125 -1.125 C 4.582031 -1.007812 4.644531 -0.910156 4.71875 -0.828125 C 4.800781 -0.742188 4.894531 -0.675781 5 -0.625 C 5.113281 -0.582031 5.238281 -0.5625 5.375 -0.5625 C 5.625 -0.5625 5.835938 -0.648438 6.015625 -0.828125 C 6.203125 -1.015625 6.296875 -1.234375 6.296875 -1.484375 C 6.296875 -1.742188 6.203125 -1.957031 6.015625 -2.125 C 5.835938 -2.300781 5.625 -2.390625 5.375 -2.390625 Z M 1.921875 -4.34375 C 1.691406 -4.34375 1.476562 -4.382812 1.28125 -4.46875 C 1.09375 -4.5625 0.925781 -4.679688 0.78125 -4.828125 C 0.632812 -4.972656 0.519531 -5.140625 0.4375 -5.328125 C 0.351562 -5.523438 0.3125 -5.738281 0.3125 -5.96875 C 0.3125 -6.1875 0.351562 -6.394531 0.4375 -6.59375 C 0.519531 -6.789062 0.632812 -6.960938 0.78125 -7.109375 C 0.925781 -7.253906 1.09375 -7.367188 1.28125 -7.453125 C 1.476562 -7.535156 1.691406 -7.578125 1.921875 -7.578125 C 2.140625 -7.578125 2.347656 -7.535156 2.546875 -7.453125 C 2.742188 -7.367188 2.914062 -7.253906 3.0625 -7.109375 C 3.207031 -6.960938 3.320312 -6.789062 3.40625 -6.59375 C 3.5 -6.394531 3.546875 -6.1875 3.546875 -5.96875 C 3.546875 -5.738281 3.5 -5.523438 3.40625 -5.328125 C 3.320312 -5.140625 3.207031 -4.972656 3.0625 -4.828125 C 2.914062 -4.679688 2.742188 -4.5625 2.546875 -4.46875 C 2.347656 -4.382812 2.140625 -4.34375 1.921875 -4.34375 Z M 1.921875 -6.890625 C 1.796875 -6.890625 1.675781 -6.863281 1.5625 -6.8125 C 1.457031 -6.757812 1.363281 -6.691406 1.28125 -6.609375 C 1.195312 -6.535156 1.128906 -6.441406 1.078125 -6.328125 C 1.035156 -6.210938 1.015625 -6.09375 1.015625 -5.96875 C 1.015625 -5.832031 1.035156 -5.707031 1.078125 -5.59375 C 1.128906 -5.488281 1.195312 -5.394531 1.28125 -5.3125 C 1.363281 -5.238281 1.457031 -5.175781 1.5625 -5.125 C 1.675781 -5.070312 1.796875 -5.046875 1.921875 -5.046875 C 2.046875 -5.046875 2.164062 -5.070312 2.28125 -5.125 C 2.394531 -5.175781 2.488281 -5.238281 2.5625 -5.3125 C 2.644531 -5.394531 2.710938 -5.488281 2.765625 -5.59375 C 2.816406 -5.707031 2.84375 -5.832031 2.84375 -5.96875 C 2.84375 -6.21875 2.75 -6.429688 2.5625 -6.609375 C 2.382812 -6.796875 2.171875 -6.890625 1.921875 -6.890625 Z M 5.671875 -7.8125 L 6.265625 -7.453125 L 1.703125 0.265625 L 1.09375 -0.09375 Z M 5.671875 -7.8125 "/></g></g></g><g clip-path="url(#bcae877afd)"><g clip-path="url(#fed96bfe0d)"><path fill="#b8dbba" d="M 1.445312 1.726562 L 63.300781 1.726562 L 63.300781 11.003906 L 1.445312 11.003906 Z M 1.445312 1.726562 " fill-opacity="1" fill-rule="nonzero"/></g></g><g clip-path="url(#209354e1ff)"><g clip-path="url(#7433b06ddf)"><path fill="#00543d" d="M 1.445312 1.726562 L 63.300781 1.726562 L 63.300781 11.003906 L 1.445312 11.003906 Z M 1.445312 1.726562 " fill-opacity="1" fill-rule="nonzero"/></g></g></svg>